<svg width="40" height="40" viewBox="0 0 40 40" fill="none" xmlns="http://www.w3.org/2000/svg">
<rect width="40" height="40" rx="4" fill="#021850"/>
<path d="M15.11 18.5696L11.9106 15.4511L13.0384 14.3519L15.11 16.3633L20.3811 11.2256L21.5089 12.3326L15.11 18.5696Z" fill="white"/>
<path d="M26.1964 25.6425L25.0319 26.8035L22.067 23.8475L19.102 26.8035L17.9375 25.6425L20.9025 22.6864L17.9375 19.7304L19.102 18.5693L22.067 21.5254L25.0319 18.5693L26.1964 19.7304L23.2315 22.6864L26.1964 25.6425Z" fill="white"/>
<path d="M11.1429 17.5823C11.1429 18.2062 11.0409 18.6779 10.8368 18.9975C10.6328 19.317 10.3033 19.5453 9.84821 19.6822C10.3033 19.8192 10.6328 20.0474 10.8368 20.367C11.0409 20.6865 11.1429 21.1583 11.1429 21.7821V26.7809C11.1429 27.9678 11.7235 28.5612 12.8847 28.5612H13.4732V30.3644H12.4375C11.2606 30.3644 10.3739 30.0753 9.7776 29.4971C9.18128 28.9341 8.88312 28.0971 8.88312 26.9863V21.7365C8.88312 20.9757 8.53003 20.5952 7.82386 20.5952H7V18.7692H7.82386C8.53003 18.7692 8.88312 18.3888 8.88312 17.6279V12.3781C8.88312 11.2673 9.18128 10.4304 9.7776 9.86736C10.3739 9.28912 11.2606 9 12.4375 9H13.4732V10.8032H12.8847C11.7235 10.8032 11.1429 11.3967 11.1429 12.5836V17.5823Z" fill="#00C6E9"/>
<path d="M32 18.7692V20.5952H31.2245C30.5554 20.5952 30.2208 20.9757 30.2208 21.7365V26.9863C30.2208 28.0971 29.9243 28.9341 29.3312 29.4971C28.7533 30.0753 27.8942 30.3644 26.7536 30.3644H25.75V28.5612H26.2974C27.4532 28.5612 28.031 27.9678 28.031 26.7809V21.7821C28.031 21.143 28.1223 20.6713 28.3047 20.367C28.5024 20.0474 28.8218 19.8192 29.2628 19.6822C28.8218 19.5453 28.5024 19.3246 28.3047 19.0203C28.1223 18.7007 28.031 18.2214 28.031 17.5823V12.5836C28.031 11.3967 27.4532 10.8032 26.2974 10.8032H25.75V9H26.7536C27.8942 9 28.7533 9.28912 29.3312 9.86736C29.9243 10.4304 30.2208 11.2673 30.2208 12.3781V17.6279C30.2208 18.3888 30.5554 18.7692 31.2245 18.7692H32Z" fill="#00C6E9"/>
</svg>
